<?xml version="1.0" encoding="iso-8859-1"?>
<!-- Generator: Adobe Illustrator 19.0.0, SVG Export Plug-In . SVG Version: 6.00 Build 0)  -->
<svg version="1.1" id="Capa_1" xmlns="http://www.w3.org/2000/svg" xmlns:xlink="http://www.w3.org/1999/xlink" x="0px" y="0px"
	 viewBox="0 0 512 512" style="enable-background:new 0 0 512 512;" xml:space="preserve">
<path style="fill:#FDCA74;" d="M35.687,234.598c0,0,62.892-103.083,220.314-103.083s220.315,103.083,220.315,103.083v22.982h-37.552
	l-43.078-14.57l-71.584,14.57l-68.101-13.937l-66.2,13.937l-68.418-13.937l-63.35,13.937H35.687V234.598z"/>
<path style="fill:#E6A537;" d="M70.686,243.26c0,0,53.208-87.209,182.629-111.717c-155.44,1.17-217.627,103.054-217.627,103.054
	v22.982h22.348l12.651-2.784C70.686,254.795,70.686,243.26,70.686,243.26z"/>
<path style="fill:#FA7578;" d="M27.994,272.855c0,52.508,21.172,107.622,53.48,107.622h349.055c32.308,0,53.48-55.114,53.48-107.622
	l-7.693-15.275h-37.552l-43.078-14.57l-71.584,14.57l-68.101-13.937l-66.2,13.937l-68.418-13.937l-63.35,13.937H35.687
	L27.994,272.855z"/>
<path style="fill:#F9545B;" d="M68.993,272.855l7.693-15.275h22.348l43.638-9.601l-21.287-4.336l-63.35,13.937H35.687l-7.693,15.275
	c0,52.508,21.172,107.621,53.48,107.621h40.999C90.165,380.478,68.993,325.364,68.993,272.855z"/>
<path style="fill:#E6A537;" d="M190.435,278.742c-14.408,0-28.817-3.617-41.952-10.851c-14.786-8.144-32.444-8.144-47.23,0
	c-26.269,14.467-57.634,14.467-83.903,0c-9.194-5.063-12.543-16.62-7.479-25.815c5.063-9.195,16.62-12.543,25.816-7.479
	c14.786,8.146,32.444,8.146,47.23,0c26.269-14.467,57.634-14.467,83.903,0c14.786,8.146,32.444,8.146,47.23,0
	c26.269-14.466,57.634-14.467,83.903,0c14.786,8.144,32.444,8.144,47.23,0c26.269-14.466,57.634-14.466,83.903,0
	c14.786,8.144,32.444,8.144,47.23,0c9.196-5.064,20.752-1.715,25.815,7.479c5.064,9.195,1.715,20.752-7.479,25.815
	c-26.269,14.467-57.634,14.467-83.903,0c-14.786-8.142-32.444-8.142-47.23,0c-26.269,14.467-57.634,14.467-83.903,0
	c-14.787-8.142-32.444-8.142-47.23,0C219.252,275.125,204.844,278.742,190.435,278.742z"/>
<path d="M263.502,182.511v-21.539c0-4.142-3.358-7.5-7.5-7.5s-7.5,3.358-7.5,7.5v21.539c0,4.142,3.358,7.5,7.5,7.5
	S263.502,186.652,263.502,182.511z"/>
<path d="M172.92,190.329c3.005,0,5.841-1.819,6.994-4.788c2.072-5.339,8.025-10.257,10.148-11.704
	c3.424-2.314,4.332-6.965,2.025-10.397c-2.31-3.438-6.971-4.353-10.408-2.042c-1.175,0.789-11.598,8.021-15.748,18.715
	c-1.499,3.861,0.417,8.207,4.278,9.706C171.101,190.165,172.018,190.329,172.92,190.329z"/>
<path d="M332.09,185.542c1.475,3.8,5.91,5.751,9.706,4.278c3.861-1.499,5.777-5.844,4.278-9.706
	c-4.151-10.695-14.573-17.926-15.748-18.715c-3.438-2.311-8.098-1.396-10.408,2.042c-2.31,3.438-1.396,8.098,2.042,10.408
	C323.922,175.168,329.995,180.146,332.09,185.542z"/>
<path d="M167.908,315.409v14.585c0,4.143,3.358,7.5,7.5,7.5c4.142,0,7.5-3.357,7.5-7.5v-14.585c0-4.142-3.358-7.5-7.5-7.5
	C171.266,307.909,167.908,311.267,167.908,315.409z"/>
<path d="M329.096,315.409v14.585c0,4.143,3.358,7.5,7.5,7.5c4.142,0,7.5-3.357,7.5-7.5v-14.585c0-4.142-3.358-7.5-7.5-7.5
	C332.454,307.909,329.096,311.267,329.096,315.409z"/>
<path d="M270.247,324.045c-3.465,3.964-8.658,6.237-14.246,6.237c-5.589,0-10.781-2.273-14.245-6.237
	c-2.727-3.119-7.464-3.437-10.583-0.711c-3.119,2.726-3.437,7.464-0.711,10.583c6.313,7.223,15.621,11.365,25.539,11.365
	c9.917,0,19.225-4.142,25.538-11.365c2.726-3.119,2.408-7.856-0.71-10.583C277.711,320.609,272.973,320.926,270.247,324.045z"/>
<path d="M13.733,274.461c2.231,1.229,4.511,2.354,6.825,3.396c0.63,25.851,6.106,51.705,15.244,71.626
	c11.388,24.823,27.607,38.494,45.672,38.494h289.134c4.142,0,7.5-3.358,7.5-7.5s-3.358-7.5-7.5-7.5H81.475
	c-22.892,0-43.156-40.866-45.71-89.749c0.146,0.038,0.294,0.065,0.44,0.103c16.826,4.27,34.854,3.744,51.407-1.489
	c10.933-3.456,20.538-10.765,32.111-12.23c0.049-0.006,0.098-0.008,0.146-0.014c16.417-2.142,28.794,8.245,43.72,12.697
	c20.513,6.118,43.252,5.146,62.991-3.313c8.01-3.433,15.484-8.274,24.302-9.371c10.132-1.272,18.871,1.71,27.764,6.255
	c27.977,14.294,60.834,13.827,88.491-1.404c4.566-2.515,9.906-4.231,14.934-4.855c3.345-0.416,6.725-0.417,10.07-0.005
	c0.046,0.006,0.092,0.007,0.138,0.013c8.486,1.083,15.107,5.415,22.781,8.745c11.55,5.011,24.75,7.884,37.64,7.884
	c7.441,0,15.619-1.008,23.126-2.917c0.137-0.035,0.275-0.061,0.412-0.096c-2.554,48.884-22.818,89.75-45.71,89.75h-29.922
	c-4.142,0-7.5,3.358-7.5,7.5s3.358,7.5,7.5,7.5h29.922c18.065,0,34.286-13.671,45.672-38.494
	c9.139-19.921,14.615-45.775,15.244-71.626c2.314-1.042,4.594-2.168,6.825-3.396c6.202-3.416,10.702-9.041,12.672-15.84
	c1.97-6.8,1.174-13.961-2.242-20.162c-4.661-8.464-13.564-13.723-23.233-13.723c-2.114,0-4.219,0.266-6.269,0.768
	c-6.565-9.099-22.481-28.775-49.592-48.511c-33.2-24.168-90.268-52.978-173.605-52.978c-39.347,0-76.355,6.372-109.996,18.938
	c-3.88,1.449-5.851,5.77-4.401,9.65c1.45,3.88,5.772,5.85,9.65,4.401c31.957-11.938,67.2-17.99,104.747-17.99
	c78.934,0,132.847,27.01,164.175,49.668c23.014,16.645,37.583,33.457,44.647,42.668c-0.61,0.188-1.22,0.389-1.841,0.538
	c-10.13,2.62-21.126,1.179-30.279-3.861c-27.657-15.23-60.516-15.697-88.494-1.402c-13.625,6.961-28.512,9.182-42.639,1.403
	c-28.533-15.714-62.604-15.714-91.14,0c-12.275,6.762-27.714,6.76-39.994,0c-28.534-15.714-62.605-15.714-91.156,0.008
	c-9.14,5.029-20.151,6.501-30.262,3.854c-0.021-0.005-0.041-0.012-0.061-0.017c-0.602-0.157-1.196-0.341-1.791-0.524
	c3.272-4.276,8.152-10.181,14.723-16.916c12.319-12.628,33.286-30.857,63.21-45.992c3.696-1.87,5.177-6.382,3.308-10.078
	c-1.87-3.696-6.381-5.177-10.078-3.308c-49.526,25.051-76.451,57.853-85.53,70.45c-2.049-0.502-4.154-0.767-6.267-0.767
	c-9.67,0-18.572,5.258-23.232,13.723c-3.416,6.202-4.212,13.362-2.242,20.162C3.029,265.427,7.532,271.046,13.733,274.461z
	 M16.441,245.694c2.024-3.675,5.891-5.958,10.094-5.958c4.523,0,8.418,3.054,12.469,4.663c15.156,6.017,33.119,4.709,47.531-3.231
	c23.755-13.087,52.906-13.09,76.666,0c15.473,8.525,34.899,9.271,51.081,1.717c0.066-0.031,0.134-0.059,0.201-0.091
	c26.052-12.209,53.75-16.001,79.852-1.626c17.473,9.624,38.845,8.079,56.22-0.931c0.158-0.082,0.314-0.169,0.472-0.25
	c23.296-11.918,51.536-11.432,74.44,1.181c14.648,8.067,32.658,9.161,48.182,2.972c7.509-2.994,16.544-8.191,21.912,1.556
	c3.031,5.505,0.958,12.607-4.528,15.627c-19.954,10.989-44.216,12.899-65.603,5.038c-12.598-4.63-24.095-11.979-37.928-12.069
	c-9.607-0.057-19.188,2.396-27.603,7.031c-13.846,7.626-29.933,11.046-45.678,9.571c-0.018-0.002-0.037-0.003-0.055-0.004
	c-20.569-1.638-37.602-16.725-58.525-16.597c-14.784,0.096-26.274,8.131-39.801,12.722c-21.01,7.13-44.326,5.002-63.753-5.697
	c-19.863-10.93-39.85-6.568-59.376,2.494c-22.655,10.515-49.863,9.565-71.744-2.488C15.472,258.295,13.41,251.198,16.441,245.694z"
	/>
<g>
</g>
<g>
</g>
<g>
</g>
<g>
</g>
<g>
</g>
<g>
</g>
<g>
</g>
<g>
</g>
<g>
</g>
<g>
</g>
<g>
</g>
<g>
</g>
<g>
</g>
<g>
</g>
<g>
</g>
</svg>
